<?xml version="1.0" encoding="utf-8"?>
<svg xmlns="http://www.w3.org/2000/svg" viewBox="0 0 906 906">
  <path fill="#F98D1B" d="M84.94 772.84 l0 -133.16 81.22 -0.18 c44.59 -0.18 83.61 -0.27 86.71 -0.27 5.66 0 6.19 -0.27 4.42 -2.03 -0.80 -0.80 0.18 -1.06 4.60 -1.06 4.42 0 5.40 0.27 4.60 1.06 -0.62 0.62 -1.06 1.33 -1.06 1.68 0 0.44 84.76 0.62 188.46 0.53 103.61 -0.09 188.37 -0.44 188.19 -0.80 -0.18 -0.44 -42.47 -43.35 -159.43 -161.56 -12.65 -12.83 -23.09 -23.62 -23.27 -23.98 -0.18 -0.44 0.62 -1.77 1.77 -2.92 30.61 -31.50 132.89 -136.52 152.36 -156.43 24.24 -24.68 26.19 -26.99 23.98 -27.25 -2.30 -0.27 -2.30 -0.35 -0.80 -2.03 2.03 -2.30 10.97 -2.39 13.27 -0.09 1.50 1.42 1.50 1.50 -0.44 1.77 -1.06 0.18 -1.86 0.62 -1.68 1.06 0.27 0.88 111.66 113.60 159.08 161.03 42.20 42.29 54.06 56.98 69.10 86.26 16.01 30.97 24.51 58.84 28.67 94.23 1.42 11.94 1.95 62.82 0.62 62.82 -0.44 0 -1.50 4.69 -2.39 10.44 -7.17 46.72 -26.37 89.98 -56.54 127.58 -6.99 8.67 -25.66 27.78 -34.59 35.39 -25.13 21.32 -55.65 38.58 -84.94 48.04 -18.58 5.93 -21.77 6.72 -40.70 10 -4.87 0.80 -9.20 1.86 -9.64 2.30 -0.53 0.35 -133.78 0.71 -296.22 0.71 l-295.33 0 0 -133.16z"/>
</svg>
