<?xml version="1.0" encoding="utf-8"?>
<svg xmlns="http://www.w3.org/2000/svg" viewBox="0 0 906 906">
  <path fill="#0A4D9A" d="M230.92 610.75 c-15.75 -16.01 -59.72 -60.25 -97.77 -98.47 -61.67 -61.93 -70.16 -70.78 -78.39 -81.84 -27.60 -36.89 -45.12 -78.57 -52.20 -123.60 -0.53 -3.80 -1.42 -6.90 -1.77 -6.90 -1.06 0 -0.97 -49.90 0.09 -59.72 9.29 -84.23 53.44 -156.16 122.98 -200.31 8.67 -5.57 36.81 -19.73 42.03 -21.32 1.95 -0.53 5.31 -1.77 7.52 -2.65 5.57 -2.30 15.31 -5.31 17.16 -5.31 0.80 0 3.89 -0.80 6.81 -1.77 5.40 -1.86 15.13 -3.89 31.76 -6.81 8.85 -1.50 24.07 -1.59 300.20 -1.77 l290.82 -0.27 0 133.16 0 133.25 -89.54 -0.09 c-310.38 -0.18 -467.95 0.09 -467.69 0.80 0.35 1.24 21.94 23.09 104.23 106.26 40.26 40.61 74.41 75.29 75.91 77.06 l2.83 3.27 -25.48 26.01 c-13.98 14.24 -41.14 42.11 -60.34 61.76 -79.72 81.75 -96.26 98.21 -98.47 98.21 -1.59 0 -8.94 -6.99 -30.70 -28.93z"/>
</svg>
